<svg class="testimonial__quotes" fill="none" height="127" viewBox="0 0 155 127" width="155" xmlns="http://www.w3.org/2000/svg">
<path d="M34.6922 127C23.6788 127 15.1434 123.701 9.08606 117.104C3.02869 110.232 0 100.61 0 88.2403C0 76.145 2.61568 62.5379 7.84705 47.4188C13.3538 32.2998 20.6501 16.4935 29.7362 0H73.1015V2.47404C66.7688 13.4697 61.1244 23.9156 56.1684 33.8117C51.4877 43.4329 47.4953 52.5043 44.1913 61.026C52.176 62.6753 58.3711 66.3864 62.7764 72.1591C67.1818 77.9318 69.3845 85.2165 69.3845 94.013C69.3845 103.909 66.3558 111.881 60.2984 117.929C54.5164 123.976 45.981 127 34.6922 127ZM116.591 127C105.577 127 97.0419 123.701 90.9846 117.104C84.9272 110.232 81.8985 100.61 81.8985 88.2403C81.8985 76.145 84.5142 62.5379 89.7455 47.4188C95.2522 32.2998 102.549 16.4935 111.635 0H155V2.47404C148.667 13.4697 143.023 23.9156 138.067 33.8117C133.386 43.4329 129.394 52.5043 126.09 61.026C134.075 62.6753 140.27 66.3864 144.675 72.1591C149.08 77.9318 151.283 85.2165 151.283 94.013C151.283 103.909 148.254 111.881 142.197 117.929C136.415 123.976 127.879 127 116.591 127Z"></path>
</svg>