<svg fill="none" height="48" viewBox="0 0 40 48" width="40" xmlns="http://www.w3.org/2000/svg" xmlns:xlink="http://www.w3.org/1999/xlink"><clipPath id="a"><path d="m0 0h40v48h-40z"/></clipPath><g clip-path="url(#a)"><path d="m20 44c11.0457 0 20-8.9543 20-20s-8.9543-20-20-20c-11.04569 0-20 8.9543-20 20s8.95431 20 20 20z" fill="#000"/><g fill="#fff"><path d="m28.656 19.32h-3.416c.092-.536.424-.836 1.096-1.176l.628-.32c1.124-.576 1.724-1.228 1.724-2.292 0-.668-.26-1.196-.776-1.576s-1.124-.568-1.836-.568c-.5508-.0065-1.0915.1478-1.556.444-.468.288-.816.66-1.032 1.124l.988.992c.384-.776.94-1.156 1.672-1.156.62 0 1 .32 1 .764 0 .372-.184.68-.896 1.04l-.404.196c-.876.444-1.484.952-1.836 1.528s-.524 1.3-.524 2.176v.24h5.168z"/><path d="m28.2 22.368h-5.656l-2.828 4.896h5.656l2.828 4.9 2.828-4.9z"/><path d="m20.204 30.532c-3.6 0-6.532-2.932-6.532-6.532s2.932-6.532 6.532-6.532l2.236-4.676c-.7363-.1464-1.4853-.2201-2.236-.22-6.312 0-11.428 5.116-11.428 11.428s5.116 11.428 11.428 11.428c2.4189.0046 4.776-.7634 6.728-2.192l-2.472-4.288c-1.1826 1.0216-2.6932 1.5838-4.256 1.584z"/></g></g></svg>