<svg fill="none" height="36" viewBox="0 0 36 36" width="36" xmlns="http://www.w3.org/2000/svg" xmlns:xlink="http://www.w3.org/1999/xlink"><clipPath id="a"><path d="m0 0h36v36h-36z"/></clipPath><g clip-path="url(#a)"><path d="m32 0h-28c-2.20914 0-4 1.79086-4 4v28c0 2.2091 1.79086 4 4 4h28c2.2091 0 4-1.7909 4-4v-28c0-2.20914-1.7909-4-4-4z" fill="#fff"/><g clip-rule="evenodd" fill-rule="evenodd"><path d="m10.7683 21.7841-3.91713-3.935c-.66561-.6687-1.74475-.6687-2.41056 0-.6656.6686-.6656 1.7527 0 2.4216l5.12238 5.1459c.66561.6686 1.74501.6686 2.41061 0l4.8213-4.8437-2.4104-2.4216z" fill="#16b8a2"/><path d="m25.5338 14.2171-7.5322 7.5668-7.5332-7.5677c-.66586-.6688-1.74501-.6688-2.41061 0-.6656.6687-.6656 1.7528 0 2.4216l8.73841 8.7785c.6656.6688 1.7448.6688 2.4106 0l8.7376-8.7776c.6656-.6689.6656-1.753 0-2.4216-.6658-.6687-1.745-.6687-2.4106 0z" fill="#ffb41f"/><path d="m31.5597 20.2714-5.1216 5.145c-.6656.6686-1.7447.6686-2.4104 0l-12.3547-12.4114c-.6656-.6687-.6656-1.7528 0-2.4214.6659-.66888 1.745-.66888 2.4105 0l11.1493 11.2004 3.9163-3.9343c.6657-.6686 1.7449-.6686 2.4106 0 .6655.669.6655 1.753 0 2.4217z" fill="#f56358"/><path d="m24.3267 10.5845c-.6657-.66866-1.7448-.66866-2.4107 0l-7.5322 7.5669 2.4105 2.4216 7.5324-7.5669c.6656-.6688.6656-1.7529 0-2.4216z" fill="#16b8a2"/></g></g></svg>