<svg fill="none" height="48" viewBox="0 0 188 48" width="188" xmlns="http://www.w3.org/2000/svg"><g fill="#000"><path d="m129.643 22.5924c0-3.0699-1.891-5.3054-5.515-5.3054h-11.707v15.9162h3.845v-5.4313h4.553l4.459 5.4313h4.333v-.3463l-4.333-5.1795c2.726-.551 4.365-2.5346 4.365-5.085zm-5.94 1.9679h-7.422v-3.9673h7.422c1.37 0 2.253.7242 2.253 1.9837 0 1.2909-.851 1.9836-2.253 1.9836z"/><path d="m187.768 17.287h-3.609v6.0453h-9.69v-6.0453h-3.891v15.932h3.891v-6.2815h9.69v6.2815h3.609z"/><path d="m102.132 17.287-4.2855 13.3973h-.2363l-4.3015-13.3973h-6.854v15.932h3.6713v-13.0825h.2205l4.2858 13.0825h5.9087l4.301-13.0825h.221v13.0825h3.781v-15.932z"/><path d="m60.252 23.8045c-1.355-.1417-3.8918-.3778-5.2468-.5195-1.3393-.1417-2.1113-.5353-2.1113-1.4169 0-.8501.8193-1.5586 4.1281-1.5586 2.9307 0 5.625.6298 7.9727 1.7633v-3.558c-2.3477-1.1177-4.9475-1.6687-8.1775-1.6687-4.5378 0-7.6733 1.8891-7.6733 5.1007 0 2.7078 1.8434 4.1877 5.5304 4.597 1.3393.1417 3.6082.3464 5.1996.4723 1.7332.1417 2.2374.6769 2.2374 1.4641 0 1.0863-1.2132 1.7475-4.2857 1.7475-3.1198 0-6.2868-1.0233-8.5399-2.4559v3.6681c1.8119 1.2122 4.9317 2.2355 8.4138 2.2355 4.9475 0 8.1303-1.9049 8.1303-5.3211.0315-2.5819-1.6702-4.1405-5.5778-4.5498z"/><path d="m68.3823 17.287v15.932h14.8582v-3.2588h-11.187v-3.2274h10.9979v-3.2273h-10.9979v-2.9597h11.187v-3.2588z"/><path d="m162.621 23.8045c-1.355-.1417-3.892-.3778-5.247-.5195-1.34-.1417-2.112-.5353-2.112-1.4169 0-.8501.82-1.5586 4.129-1.5586 2.93 0 5.625.6298 7.972 1.7633v-3.558c-2.347-1.1177-4.947-1.6687-8.177-1.6687-4.538 0-7.674 1.8891-7.674 5.1007 0 2.7078 1.844 4.1877 5.531 4.597 1.339.1417 3.608.3464 5.199.4723 1.734.1417 2.238.6769 2.238 1.4641 0 1.0863-1.213 1.7475-4.286 1.7475-3.12 0-6.287-1.0233-8.54-2.4559v3.6681c1.812 1.2122 4.932 2.2355 8.414 2.2355 4.948 0 8.13-1.9049 8.13-5.3211.032-2.5819-1.67-4.1405-5.577-4.5498z"/><path d="m145.052 17.287v8.1549c0 3.0856-1.875 4.7859-4.695 4.7859-2.836 0-4.695-1.6688-4.695-4.8331v-8.1077h-3.829v7.7456c0 5.7777 3.608 8.6429 8.587 8.6429 4.774 0 8.477-2.7393 8.477-8.454v-7.9345z"/><path d="m35.9716 25.3426c0 .7714-.3939.8973-1.3708.8973-1.0399 0-1.229-.1731-1.3393-.9603-.2048-1.9994-1.5599-3.6996-3.8288-3.8885-.7248-.063-.8981-.3306-.8981-1.228 0-.8344.1261-1.228.7721-1.228 3.9391.0158 6.6649 3.1801 6.6649 6.4075zm5.7353 0c0-5.9981-4.0651-12.3426-13.4559-12.3426h-18.65542c-.37815 0-.6145.1889-.6145.5353 0 .1889.14181.3621.26786.4565.67752.5353 1.68596 1.1335 3.00946 1.7947 1.292.6455 2.3004 1.0706 3.3088 1.4799.4254.1731.583.3621.583.5982 0 .3306-.2364.5353-.6933.5353h-14.810893c-.441176 0-.646007.2833-.646007.5667 0 .2362.0787807.4408.283612.6455 1.197478 1.2594 3.119748 2.7708 5.908608 4.5183 2.44222 1.527 5.46738 3.1801 7.87818 4.3293.4096.1889.5357.4093.5357.6455-.0158.2676-.2206.488-.6933.488h-6.79096c-.37815 0-.59874.2047-.59874.5195 0 .1732.14181.3936.33088.5668 1.54412 1.4011 4.01782 2.9282 7.31092 4.3293 4.396 1.8734 8.855 2.9912 13.8655 2.9912 9.5011 0 13.6765-7.1001 13.6765-12.6574zm-12.4002 8.517c-4.6639 0-8.5557-3.7941-8.5557-8.517 0-4.66 3.8918-8.3911 8.5557-8.3911 4.7899 0 8.5241 3.7311 8.5241 8.3911-.0157 4.7229-3.75 8.517-8.5241 8.517z"/></g></svg>