<svg fill="none" height="48" viewBox="0 0 98 48" width="98" xmlns="http://www.w3.org/2000/svg"><path d="m97.3189 27.8722c-.1666 0-.3185.1097-.3969.3392-1.0045 2.9186-2.3618 4.6548-3.479 4.6548-.6419 0-.9016-.7284-.9016-1.8709 0-2.8587 1.6807-8.9205 2.5284-11.6844.098-.3343.1617-.6336.1617-.8881 0-.8032-.4312-1.1974-1.4994-1.1974-1.1515 0-2.3912.459-3.5966 2.6093-.4165-1.8958-1.6758-2.724-3.4349-2.724-2.0335 0-3.9984 1.3321-5.6154 3.4924-1.617 2.1602-3.5182 2.8687-4.949 2.5194 1.029-2.5643 1.4112-4.4802 1.4112-5.902 0-2.2302-1.0829-3.5772-2.8322-3.5772-2.6607 0-4.1944 2.5843-4.1944 5.3034 0 2.1004.9359 4.2607 2.9939 5.3084-1.7248 3.9713-4.2434 7.5634-5.1989 7.5634-1.2348 0-1.5974-6.1515-1.5288-10.5519.0441-2.5245.2499-2.6542.2499-3.4175 0-.4391-.2793-.7384-1.4014-.7384-2.6166 0-3.4251 2.2551-3.5476 4.8444-.0396.984-.1908 1.96-.4508 2.9086-1.0927 3.9713-3.3467 6.9848-4.8167 6.9848-.6811 0-.8673-.6935-.8673-1.6015 0-2.8588 1.5729-6.431 1.5729-9.4793 0-2.2401-.9653-3.657-2.7832-3.657-2.1413 0-4.9735 2.5943-7.6538 7.4537.882-3.7219 1.2446-7.324-1.3671-7.324-.5666.0086-1.1229.1558-1.6219.4291-.1675.0797-.3076.209-.402.371-.0944.1619-.1387.349-.1272.537.2499 3.9613-3.136 14.1091-6.3455 14.1091-.5831 0-.8673-.6436-.8673-1.6813 0-2.8637 1.6758-8.9105 2.5186-11.6795.1078-.3592.1666-.6685.1666-.9379 0-.7583-.4606-1.1475-1.5043-1.1475-1.1466 0-2.3912.444-3.5917 2.5943-.4214-1.8958-1.6807-2.724-3.4398-2.724-2.8861 0-6.1103 3.1082-7.5264 7.1593-1.8963 5.4082-5.7183 10.6318-10.8633 10.6318-4.6697 0-7.1344-3.9564-7.1344-10.2077 0-9.0253 6.5072-16.39912 11.3337-16.39912 2.3079 0 3.4104 1.49673 3.4104 3.79172 0 2.7789-1.5239 4.0711-1.5239 5.1288 0 .3243.2646.6436.7889.6436 2.0972 0 4.5668-2.5096 4.5668-5.9321 0-3.42248-2.7293-5.927-7.5558-5.927-7.9772 0-16.0034 8.1721-16.0034 18.6442 0 8.3318 4.0376 13.3558 11.0201 13.3558 4.7628 0 8.9229-3.7717 11.1671-8.1721.2548 3.647 1.8816 5.5528 4.361 5.5528 2.205 0 3.9886-1.337 5.3508-3.6869.5243 2.4596 1.9159 3.662 3.724 3.662 2.0727 0 3.8073-1.3371 5.4586-3.8217-.0245 1.9508.4116 3.7868 2.0727 3.7868.784 0 1.7199-.1846 1.8865-.8831 1.7493-7.3639 6.0711-13.3758 7.3941-13.3758.392 0 .4998.3842.4998.8382 0 2.0006-1.3867 6.1017-1.3867 8.7209 0 2.8289 1.1809 4.6998 3.6211 4.6998 2.7048 0 5.4537-3.3727 7.2863-8.3019.5733 4.6049 1.813 8.3218 3.7534 8.3218 2.3814 0 6.6101-5.1038 9.1728-10.507 1.0045.1297 2.5137.0948 3.9641-.9479-.6174 1.5915-.98 3.3327-.98 5.0739 0 5.014 2.352 6.4209 4.3757 6.4209 2.2001 0 3.9837-1.337 5.3508-3.6869.4508 2.1204 1.6023 3.657 3.7191 3.657 3.3124 0 6.1887-3.4475 6.1887-6.2763 0-.7483-.3136-1.2023-.6811-1.2023zm-68.7519 4.7296c-1.3377 0-1.862-1.372-1.862-3.4175 0-3.5522 2.3863-9.4843 4.9098-9.4843 1.1025 0 1.519 1.3221 1.519 2.9386 0 3.6071-2.2687 9.9632-4.5668 9.9632zm45.8199-10.6018c-.7987-.9679-1.0878-2.285-1.0878-3.4574 0-1.4469.5194-2.6692 1.1417-2.6692s.8134.6236.8134 1.4917c0 1.4519-.5096 3.5722-.8673 4.6349zm10.3733 10.6018c-1.3377 0-1.862-1.5765-1.862-3.4175 0-3.4275 2.3863-9.4843 4.9294-9.4843 1.1025 0 1.4945 1.3122 1.4945 2.9386 0 3.6071-2.2295 9.9632-4.5619 9.9632z" fill="#000"/></svg>