<svg fill="none" height="48" viewBox="0 0 99 48" width="99" xmlns="http://www.w3.org/2000/svg" xmlns:xlink="http://www.w3.org/1999/xlink"><clipPath id="a"><path d="m0 0h99v48h-99z"/></clipPath><g clip-path="url(#a)" fill="#000"><path d="m22.1482 20.1666c-.0959 2.1585-1.6069 5.1084-4.5208 8.8617-3.0098 3.9212-5.564 5.8758-7.65052 5.8758-1.29508 0-2.3863-1.1871-3.27367-3.5734-.59957-2.1825-1.18715-4.3769-1.78672-6.5594-.65953-2.3862-1.37902-3.5734-2.13448-3.5734-.16788 0-.74347.3478-1.73876 1.0433l-1.04325-1.3431c1.09122-.9593 2.17045-1.9186 3.23769-2.8899 1.46295-1.2591 2.55417-1.9187 3.28565-1.9906 1.72677-.1679 2.78201 1.0073 3.17773 3.5375.43173 2.722.73143 4.4128.89933 5.0843.4917 2.2544 1.0433 3.3816 1.6429 3.3816.4676 0 1.1631-.7315 2.0865-2.1944.9233-1.463 1.4269-2.5782 1.4869-3.3456.1319-1.2591-.3597-1.8947-1.4869-1.8947-.5277 0-1.0793.12-1.6429.3598 1.0913-3.5615 3.1658-5.3002 6.2356-5.2043 2.2784.06 3.3456 1.5349 3.2257 4.4248z"/><path d="m35.8184 27.1576c-.9233 1.7508-2.2064 3.3456-3.8253 4.7726-2.2184 1.9186-4.4488 2.8779-6.6672 2.8779-1.0313 0-1.8227-.3357-2.3623-.9953-.5516-.6595-.8034-1.5229-.7675-2.5901.036-1.0912.3718-2.782 1.0193-5.0724.6476-2.2903.9713-3.5135.9713-3.6814 0-.8633-.2998-1.295-.8993-1.295-.2039 0-.7675.3477-1.6908 1.0432l-1.1392-1.343c1.0552-.9593 2.1225-1.9186 3.1777-2.8899 1.427-1.2591 2.4822-1.9187 3.1897-1.9906 1.0913-.096 1.8947.2278 2.4103.9713s.7075 1.7148.5756 2.9019c-.4317 2.0146-.8994 4.5807-1.391 7.6865-.036 1.427.4797 2.1345 1.5469 2.1345.4677 0 1.2951-.4917 2.4822-1.4749.9953-.8155 1.8107-1.5829 2.4343-2.3024zm-4.3289-17.68737c-.036.82737-.4437 1.61887-1.2471 2.37427-.8994.8634-1.9546 1.2831-3.1777 1.2831-1.8947 0-2.806-.8274-2.7341-2.4702.036-.8634.5396-1.67881 1.5109-2.47025.9833-.79143 2.0626-1.18715 3.2617-1.18715.6955 0 1.2711.2758 1.7388.81542.4676.53961.6835 1.09122.6475 1.65481z"/><path d="m66.8762 27.1577c-.9233 1.7507-2.2064 3.3456-3.8252 4.7726-2.2184 1.9186-4.4488 2.8779-6.6673 2.8779-2.1584 0-3.2017-1.1871-3.1297-3.5734.0359-1.0553.2398-2.3384.6235-3.8253s.5876-2.6501.6236-3.4775c.036-1.2591-.3478-1.8947-1.1512-1.8947-.8634 0-1.8946 1.0313-3.0938 3.0818-1.2591 2.1585-1.9426 4.245-2.0505 6.2716-.072 1.4269.0719 2.5182.4197 3.2856-2.3144.072-3.9332-.3118-4.8566-1.1392-.8274-.7315-1.2111-1.9426-1.1391-3.6334.0359-1.0552.1918-2.1225.4916-3.1777.2878-1.0553.4557-2.0026.4917-2.842.0719-1.2231-.3838-1.8347-1.3431-1.8347-.8274 0-1.7268.9474-2.6861 2.83-.9593 1.8947-1.4989 3.8612-1.5948 5.9238-.072 1.8586.0479 3.1537.3597 3.8852-2.2784.072-3.8972-.4077-4.8445-1.439-.7915-.8634-1.1512-2.1584-1.0912-3.9212.0359-.8634.1798-2.0625.4556-3.5974s.4317-2.734.4557-3.5974c.06-.5996-.0839-.8874-.4437-.8874-.2038 0-.7674.3358-1.6908 1.0073l-1.1991-1.3431c.1679-.1319 1.2111-1.0912 3.1298-2.8899 1.391-1.2951 2.3383-1.9546 2.8299-1.9906.8634-.0719 1.5589.2878 2.0865 1.0673.5277.7794.7915 1.6788.7915 2.71 0 .3358-.036.6476-.096.9474.4917-.7675 1.0793-1.427 1.7388-1.9906 1.5229-1.3311 3.2377-2.0745 5.1203-2.2424 1.6309-.1319 2.7821.2518 3.4776 1.1392.5636.7314.8274 1.7747.7914 3.1297.2278-.1918.4797-.4197.7435-.6475.7674-.8994 1.5109-1.6069 2.2424-2.1345 1.2231-.8993 2.5062-1.391 3.8252-1.4869 1.5949-.1319 2.7341.2518 3.4296 1.1392.5996.7314.8634 1.7627.7914 3.1177-.036.9234-.2518 2.2664-.6715 4.0411-.4197 1.7628-.6236 2.7821-.6236 3.0459-.0359.6955.036 1.1751.2039 1.4389.1679.2639.5636.3958 1.1991.3958.4677 0 1.2951-.4917 2.4823-1.475.9953-.8154 1.8107-1.5829 2.4342-2.3023z"/><path d="m85.5349 27.1098c-.9593 1.5949-2.8539 3.1777-5.6719 4.7726-3.5135 2.0146-7.075 3.0338-10.6964 3.0338-2.6861 0-4.6167-.8993-5.7679-2.686-.8274-1.2232-1.2231-2.6861-1.1991-4.3769.036-2.6861 1.2231-5.2403 3.5854-7.6626 2.5902-2.6501 5.636-3.9811 9.1495-3.9811 3.2497 0 4.9764 1.3191 5.1683 3.9692.1319 1.6908-.7914 3.4175-2.782 5.2042-2.1225 1.9546-4.7966 3.1898-8.0103 3.7174.5996.8274 1.487 1.2351 2.6861 1.2351 2.3863 0 4.9884-.6116 7.8064-1.8227 2.0266-.8514 3.6094-1.7388 4.7726-2.6621zm-11.2959-5.2043c.036-.8873-.3358-1.331-1.0912-1.331-.9953 0-2.0026.6835-3.0339 2.0505-1.0312 1.367-1.5588 2.6861-1.5828 3.9332-.024 0-.024.2158 0 .6475 1.6188-.5875 3.0338-1.4989 4.221-2.722.9593-1.0553 1.4509-1.9067 1.4869-2.5782z"/><path d="m99.0373 23.7761c-.1319 3.0458-1.2591 5.6839-3.3816 7.9023-2.1225 2.2185-4.7606 3.3217-7.9143 3.3217-2.6142 0-4.6048-.8394-5.9718-2.5302-.9953-1.2591-1.5469-2.83-1.6428-4.7127-.1679-2.8419.8634-5.4681 3.0818-7.8424 2.3863-2.6501 5.3841-3.9691 9.0056-3.9691 2.3143 0 4.077.7794 5.2762 2.3383 1.1272 1.403 1.6428 3.2377 1.5469 5.4921zm-5.624-.1919c.036-.8993-.0959-1.7148-.3717-2.4702-.2878-.7435-.6835-1.1272-1.2232-1.1272-1.6907 0-3.0818.9113-4.173 2.746-.9353 1.499-1.427 3.0938-1.4989 4.7846-.036.8274.1199 1.5589.4437 2.1945.3597.7314.8754 1.0912 1.5469 1.0912 1.4869 0 2.77-.8754 3.8252-2.6381.9114-1.463 1.391-2.9859 1.451-4.5808z"/></g></svg>