<svg fill="none" height="48" viewBox="0 0 182 48" width="182" xmlns="http://www.w3.org/2000/svg"><g fill="#000"><path d="m17.9883 14.0232h-6.0114v5.9885l6.0114 5.9884-6.0114 6.0114v5.9885h6.0114l5.9885-5.9885v-11.9998z"/><path d="m8.99418 17.006-3.00569-2.9828h-5.98849v5.9885l2.98276 3.0056 3.00573 2.9828 5.98841-5.9884z"/><path d="m2.98276 29.0057-2.98276 3.0058v5.9885h5.98849l3.00569-3.0058 2.98272-2.9827-5.98841-6.0115z"/><path d="m164.007 13h-3.689v3.6861h3.689z"/><path d="m40.5988 21.3541c1.6432 0 3.0558.98 3.4594 2.5944h3.661c-.4036-3.4304-3.4592-5.7079-7.0914-5.7079-4.2088 0-7.6969 3.1422-7.6969 7.7258 0 4.7853 3.3727 7.8699 7.6392 7.8699 3.4881 0 6.6014-2.1331 7.1491-5.7365h-3.661c-.4612 1.7006-1.845 2.6232-3.4593 2.6232-2.2197 0-3.8628-1.989-3.8628-4.7566 0-2.7097 1.5854-4.6123 3.8627-4.6123z"/><path d="m58.8169 26.8312c0 2.6234-1.4703 3.8342-3.0557 3.8342-1.7585 0-2.9117-1.1821-2.9117-3.3152v-8.7637h-3.7188v9.3689c0 3.8918 2.2486 5.8809 5.4197 5.8809 1.8739 0 3.4015-.6918 4.353-2.0756v1.7585h3.6034v-14.9327h-3.6899z"/><path d="m156.853 29.6265h-4.056v3.8927h4.056z"/><path d="m94.8096 18.2406c-4.3241 0-7.8699 3.027-7.8699 7.7258 0 4.8431 3.488 7.8699 7.8699 7.8699 4.3241 0 7.8414-3.0846 7.8414-7.8699 0-4.7566-3.4886-7.7258-7.8414-7.7258zm0 12.4824c-2.4216 0-4.0648-1.9314-4.0648-4.7566 0-2.7386 1.6143-4.6123 4.0648-4.6123 2.3926 0 4.0357 1.9026 4.0357 4.6123 0 2.8541-1.6431 4.7566-4.0357 4.7566z"/><path d="m121.733 18.2406c-2.075 0-3.863.865-4.871 2.4794-.952-1.7298-2.71-2.4794-4.469-2.4794-1.96 0-3.488.7496-4.381 2.1045v-1.7585h-3.604v14.9326h3.69v-8.3021c0-2.537 1.47-3.8054 3.056-3.8054 1.585 0 2.796 1.0667 2.796 3.2288v8.8787h3.69v-8.3021c0-2.5081 1.47-3.8054 3.056-3.8054 1.585 0 2.796 1.0667 2.796 3.2288v8.8787h3.719v-9.4842c0-4.2087-2.566-5.7944-5.478-5.7944z"/><path d="m136.405 18.2406c-3.978 0-7.639 2.9692-7.639 7.6971 0 4.9583 3.546 7.8986 7.784 7.8986 3.084 0 6.284-1.4124 7.206-4.6987h-3.632c-.692 1.3259-2.076 1.7871-3.459 1.7871-2.133 0-3.863-1.4701-4.151-3.834h11.386v-.8072c0-5.3043-3.459-8.0429-7.495-8.0429zm-3.92 6.2269c.259-2.1045 1.902-3.3439 3.863-3.3439 2.075 0 3.574 1.3259 3.747 3.3439z"/><path d="m154.508 22.0459v-3.488c-.259-.0578-.634-.0865-1.038-.0865-1.297 0-2.133.2882-3.027.98-.49.4036-.865.8937-1.182 1.4127v-2.2775h-3.603v14.9326h3.69v-8.0429c0-2.9114 2.075-3.488 3.69-3.488.403 0 .749 0 1.47.0576z"/><path d="m164.007 18.5865h-3.69v14.9327h3.69z"/><path d="m173.664 18.2406c-4.324 0-7.87 3.027-7.87 7.7258 0 4.8431 3.488 7.8699 7.87 7.8699 4.324 0 7.841-3.0846 7.841-7.8699 0-4.7566-3.489-7.7258-7.841-7.7258zm0 12.4824c-2.422 0-4.065-1.9314-4.065-4.7566 0-2.7386 1.614-4.6123 4.065-4.6123 2.392 0 4.035 1.9026 4.035 4.6123 0 2.8541-1.643 4.7566-4.035 4.7566z"/><path d="m83.1924 28.6208v-7.0514h3.4593v-2.9827h-3.4628v-4.5635h-3.6596v2.7454l1.8181 1.8181h-4.324v2.9827h2.508v7.4682c0 1.0705.3181 5.9084 7.1662 4.6176v-3.1013c-1.9407.5798-3.5052-.0099-3.5052-1.9331z"/><path d="m71.8668 24.5245-1.9612-.4262c-.5682-.1137-1.0328-.2842-1.3925-.5117-.3602-.2273-.54-.5493-.54-.9664 0-.7025.7382-1.4692 2.1884-1.4692.885 0 2.4868.347 2.6953 1.9052h3.5545c-.1576-.8412-.8835-4.8412-6.193-4.8412-1.762 0-3.1547.4405-4.1779 1.3217-1.0232.8809-1.5347 1.9943-1.5347 3.3393 0 .9096.2273 1.6533.6821 2.2311.4547.5782 1.0418 1.033 1.7621 1.3642.7198.3317 1.4965.5826 2.3306.7532l2.0747.4263c.6062.1329 1.0928.2972 1.3784.5828.7684.7683.3742 2.5788-2.1356 2.5788-2.6644 0-3.0482-1.9317-3.0879-2.4882h-3.581c0 1.1249.8713 5.5225 6.8292 5.5225 1.2506 0 2.3164-.2132 3.1974-.6396.8812-.4263 1.5534-1.0039 2.0179-1.7336.4641-.7293.6963-1.5391.6963-2.43 0-2.5606-1.5959-3.8689-4.8031-4.519z"/></g></svg>